<?xml version="1.0" encoding="utf-8"?>
<svg viewBox="0 0 220 160" width="220px" height="160px" xmlns="http://www.w3.org/2000/svg">
  <circle cx="5" cy="5" fill="#fff" r="5"/>
  <circle cx="35" cy="5" fill="#fff" r="5"/>
  <circle cx="65" cy="5" fill="#fff" r="5"/>
  <circle cx="95" cy="5" r="5" style="fill: rgba(211, 121, 121, 0.89);"/>
  <circle cx="125" cy="5" r="5" style="fill: rgba(211, 121, 121, 0.88);"/>
  <circle cx="155" cy="5" r="5" style="fill: rgba(211, 121, 121, 0.87);"/>
  <circle cx="185" cy="5" r="5" style="fill: rgba(211, 121, 121, 0.9);"/>
  <circle cx="215" cy="5" r="5" style="fill: rgba(211, 121, 121, 0.87);"/>
  <circle cx="5" cy="35" fill="#fff" r="5"/>
  <circle cx="35" cy="35" fill="#fff" r="5"/>
  <circle cx="65" cy="35" fill="#fff" r="5"/>
  <circle cx="95" cy="35" r="5" style="fill: rgba(211, 121, 121, 0.87);"/>
  <circle cx="125" cy="35" r="5" style="fill: rgba(211, 121, 121, 0.81);"/>
  <circle cx="155" cy="35" r="5" style="fill: rgba(211, 121, 121, 0.84);"/>
  <circle cx="185" cy="35" r="5" style="fill: rgba(211, 121, 121, 0.84);"/>
  <circle cx="215" cy="35" r="5" style="fill: rgba(211, 121, 121, 0.76);"/>
  <g fill="#5864ff">
    <circle cx="5" cy="65" r="5" style="fill: rgb(220, 71, 71);"/>
    <circle cx="35" cy="65" r="5" style="fill: rgb(220, 71, 71);"/>
    <circle cx="65" cy="65" r="5" style="fill: rgb(220, 71, 71);"/>
    <circle cx="95" cy="65" r="5" style="fill: rgb(220, 71, 71);"/>
    <circle cx="125" cy="65" r="5" style="fill: rgb(220, 71, 71);"/>
    <circle cx="155" cy="65" r="5" style="fill: rgb(220, 71, 71);"/>
    <circle cx="185" cy="65" r="5" style="fill: rgb(220, 71, 71);"/>
    <circle cx="215" cy="65" r="5" style="fill: rgb(220, 71, 71);"/>
    <circle cx="5" cy="95" r="5" style="fill: rgb(220, 71, 71);"/>
    <circle cx="35" cy="95" r="5" style="fill: rgb(220, 71, 71);"/>
    <circle cx="65" cy="95" r="5" style="fill: rgb(220, 71, 71);"/>
    <circle cx="95" cy="95" r="5" style="fill: rgb(220, 71, 71);"/>
    <circle cx="125" cy="95" r="5" style="fill: rgb(220, 71, 71);"/>
    <circle cx="155" cy="95" r="5" style="fill: rgb(220, 71, 71);"/>
    <circle cx="185" cy="95" r="5" style="fill: rgb(220, 71, 71);"/>
    <circle cx="215" cy="95" r="5" style="fill: rgb(220, 71, 71);"/>
    <circle cx="5" cy="125" r="5" style="fill: rgb(220, 71, 71);"/>
    <circle cx="35" cy="125" r="5" style="fill: rgb(220, 71, 71);"/>
    <circle cx="65" cy="125" r="5" style="fill: rgb(220, 71, 71);"/>
    <circle cx="95" cy="125" r="5" style="fill: rgb(220, 71, 71);"/>
    <circle cx="125" cy="125" r="5" style="fill: rgb(220, 71, 71);"/>
    <circle cx="155" cy="125" r="5" style="fill: rgb(220, 71, 71);"/>
    <circle cx="185" cy="125" r="5" style="fill: rgb(220, 71, 71);"/>
    <circle cx="215" cy="125" r="5" style="fill: rgb(220, 71, 71);"/>
    <circle cx="5" cy="155" r="5" style="fill: rgb(220, 71, 71);"/>
    <circle cx="35" cy="155" r="5" style="fill: rgb(220, 71, 71);"/>
    <circle cx="65" cy="155" r="5" style="fill: rgb(220, 71, 71);"/>
    <circle cx="95" cy="155" r="5" style="fill: rgb(220, 71, 71);"/>
    <circle cx="125" cy="155" r="5" style="fill: rgb(220, 71, 71);"/>
    <circle cx="155" cy="155" r="5" style="fill: rgb(220, 71, 71);"/>
    <circle cx="185" cy="155" r="5" style="fill: rgb(220, 71, 71);"/>
    <circle cx="215" cy="155" r="5" style="fill: rgb(220, 71, 71);"/>
  </g>
</svg>