<?xml version="1.0" encoding="utf-8"?>
<svg viewBox="0 0 494.836 638.601" width="494.836px" height="638.601px" xmlns="http://www.w3.org/2000/svg">
  <clipPath id="a">
    <path d="m175.536 0c-176.345 0 67.064 208.923-88.593 319.3s-87.752 319.3 88.593 319.3 319.3-142.956 319.3-319.3-142.955-319.3-319.3-319.3z"/>
  </clipPath>
  <linearGradient id="b" gradientUnits="objectBoundingBox" x1=".5" x2=".5" y1="1">
    <stop offset="0" style="stop-color: rgb(220, 196, 196);"/>
    <stop offset="1" style="stop-color: rgb(220, 71, 71);"/>
  </linearGradient>
  <path d="m175.536 0c-176.345 0 67.064 208.923-88.593 319.3s-87.752 319.3 88.593 319.3 319.3-142.956 319.3-319.3-142.955-319.3-319.3-319.3z" style="fill: rgb(168, 54, 54);"/>
  <g clip-path="url(#a)">
    <path d="m319.3 638.6c176.345 0-67.066-208.922 88.593-319.3s87.752-319.3-88.593-319.3-319.3 142.956-319.3 319.3 142.956 319.3 319.3 319.3z" fill="url(#b)" opacity=".3"/>
  </g>
</svg>