<?xml version="1.0" encoding="utf-8"?>
<svg viewBox="0 0 1692 517" width="1692px" height="517px" xmlns="http://www.w3.org/2000/svg">
  <clipPath id="a">
    <path d="m159 5841h1692v517h-1692z"/>
  </clipPath>
  <g clip-path="url(#a)" transform="matrix(1, 0, 0, 1, -159.000005, -5841.000174)">
    <path d="m-52.41 1302c62.21-79.011 157.84-232.31 251.61-305.49 347.561-270.678 504.052 31.946 1066.283-204.393 356.452-149.838 405.56 239.187 393.783 508.735z" transform="translate(190 5091)" style="fill: rgb(168, 54, 54);"/>
    <path d="m-113.148 1297.79c-41.4-185.711 96.459-247.977 228.027-344.267 255.548-186.624 370.256-9.856 783.643-172.8s264.57 517.071 264.57 517.071z" opacity=".05" transform="translate(515.633 5267.644)" style="fill: rgb(220, 71, 71);"/>
    <path d="m1181.684 1297.789c41.4-185.71-96.459-247.977-228.027-344.266-255.548-186.623-370.257-9.856-783.643-172.804s-264.57 517.07-264.57 517.07z" transform="translate(633.633 5267.644)" style="fill: rgb(194, 62, 62);"/>
  </g>
</svg>